# xmcd CD database file generated by Grip 3.3.1
# 
# Track frame offsets:
#       150
#       17371
#       28984
#       55781
#       70624
#       87343
#       97044
#       112011
#       129231
#       146298
#       163253
#       179933
#       199152
# 
# Disc length: 2940 seconds
# 
# Revision: 1
# Processed by: cddbd v1.5.1PL2 Copyright (c) Steve Scherf et al.
# Submitted via: Grip 3.3.1
# 
DISCID=b60b7a0d
DTITLE=Bulent Ortacgil - Eski Defterler
DYEAR=1999
DGENRE=Jazz
TTITLE0=Pencere Önü Çiçeği
TTITLE1=Olmalı mı olmamalı mı
TTITLE2=Deniz Kokusu
TTITLE3=Bu iş çok zor Yonca
TTITLE4=Değirmenler
TTITLE5=Benimle oynar mısın?
TTITLE6=Beyazın Şarkısı
TTITLE7=Sıcak
TTITLE8=Yağmur
TTITLE9=Şık Latife
TTITLE10=Bozburun
TTITLE11=Beni kategorize etme
TTITLE12=Memurun şarkısı
EXTD=YEAR: 1999
EXTT0=
EXTT1=
EXTT2=
EXTT3=
EXTT4=
EXTT5=
EXTT6=
EXTT7=
EXTT8=
EXTT9=
EXTT10=
EXTT11=
EXTT12=
PLAYORDER=
